<svg width="26" height="26" viewBox="0 0 26 26" fill="none" xmlns="http://www.w3.org/2000/svg">
<circle cx="13" cy="13" r="11.5" fill="#5465FF" stroke="white" stroke-width="3"/>
<path d="M9.05645 12.47L9.23288 12.6464L9.05645 12.47C8.91588 12.6105 8.83691 12.8012 8.83691 13C8.83691 13.1987 8.91588 13.3894 9.05645 13.53C9.19701 13.6705 9.38766 13.7495 9.58645 13.7495H12.2504V16.4135C12.2504 16.6123 12.3294 16.8029 12.47 16.9435C12.6105 17.084 12.8012 17.163 13 17.163C13.1987 17.163 13.3894 17.084 13.53 16.9435C13.6705 16.8029 13.7495 16.6123 13.7495 16.4135V13.7495H16.4135C16.6123 13.7495 16.8029 13.6705 16.9435 13.53C17.084 13.3894 17.163 13.1987 17.163 13C17.163 12.8012 17.084 12.6105 16.9435 12.47C16.8029 12.3294 16.6123 12.2504 16.4135 12.2504H13.7495V9.58645C13.7495 9.38766 13.6705 9.19701 13.53 9.05645C13.3894 8.91588 13.1987 8.83691 13 8.83691C12.8012 8.83691 12.6105 8.91588 12.47 9.05645C12.3294 9.19701 12.2504 9.38766 12.2504 9.58645V12.2504H9.58645C9.38766 12.2504 9.19701 12.3294 9.05645 12.47Z" fill="white" stroke="white" stroke-width="0.5"/>
</svg>
