<svg width="18" height="18" viewBox="0 0 18 18" fill="none" xmlns="http://www.w3.org/2000/svg">
<path fill-rule="evenodd" clip-rule="evenodd" d="M2.70001 11.487C2.69995 11.356 2.72579 11.2262 2.77607 11.1052C2.82634 10.9842 2.90005 10.8743 2.99296 10.7818L7.98643 5.79239C8.07917 5.69969 8.18928 5.62616 8.31047 5.57599C8.43166 5.52582 8.56155 5.5 8.69273 5.5C8.82391 5.5 8.9538 5.52582 9.07499 5.57599C9.19617 5.62616 9.30628 5.69969 9.39903 5.79239L14.3925 10.7818C14.4885 10.8738 14.5651 10.9839 14.6179 11.1058C14.6707 11.2278 14.6986 11.359 14.7 11.4918C14.7013 11.6247 14.6761 11.7564 14.6259 11.8794C14.5756 12.0024 14.5013 12.1141 14.4072 12.208C14.3132 12.3019 14.2013 12.3761 14.0782 12.4262C13.9551 12.4764 13.8232 12.5014 13.6902 12.4999C13.5573 12.4985 13.426 12.4705 13.304 12.4176C13.182 12.3648 13.0718 12.2881 12.9799 12.1922L8.69217 7.90902L4.40556 12.1922C4.26595 12.3319 4.08798 12.4272 3.89418 12.4658C3.70038 12.5045 3.49946 12.4848 3.31685 12.4093C3.13425 12.3338 2.97816 12.2058 2.86836 12.0417C2.75855 11.8775 2.69997 11.6845 2.70001 11.487Z" fill="#C7C7C7"/>
</svg>
