<svg width="20" height="20" viewBox="0 0 20 20" fill="none" xmlns="http://www.w3.org/2000/svg">
<circle cx="10" cy="10" r="10" fill="url(#paint0_linear_10856_102459)"/>
<path d="M10.481 10.4663H7.73438L7.71973 8.78174H9.94629C10.3467 8.78174 10.6665 8.73779 10.9058 8.6499C11.145 8.55713 11.3184 8.42285 11.4258 8.24707C11.5381 8.07129 11.5942 7.85156 11.5942 7.58789C11.5942 7.28516 11.5381 7.04102 11.4258 6.85547C11.3135 6.66992 11.1353 6.53564 10.8911 6.45264C10.6519 6.36475 10.3418 6.3208 9.96094 6.3208H8.70117V15H6.13037V4.33594H9.96094C10.6201 4.33594 11.2085 4.39697 11.7261 4.51904C12.2437 4.63623 12.6831 4.81689 13.0444 5.06104C13.4106 5.30518 13.689 5.61279 13.8794 5.98389C14.0698 6.3501 14.165 6.78223 14.165 7.28027C14.165 7.71484 14.0723 8.12256 13.8867 8.50342C13.7012 8.88428 13.3911 9.19434 12.9565 9.43359C12.5269 9.66797 11.9385 9.79004 11.1914 9.79981L10.481 10.4663ZM10.3784 15H7.11182L7.99072 13.0225H10.3784C10.73 13.0225 11.0107 12.9688 11.2207 12.8613C11.4355 12.749 11.5894 12.6025 11.6821 12.4219C11.7798 12.2363 11.8286 12.0313 11.8286 11.8066C11.8286 11.5332 11.7822 11.2964 11.6895 11.0962C11.6016 10.896 11.46 10.7422 11.2646 10.6348C11.0693 10.5225 10.8081 10.4663 10.481 10.4663H8.32031L8.33496 8.78174H10.9204L11.521 9.45557C12.2339 9.42627 12.7979 9.52637 13.2129 9.75586C13.6328 9.98535 13.9331 10.2881 14.1138 10.6641C14.2944 11.04 14.3848 11.4331 14.3848 11.8433C14.3848 12.5415 14.2334 13.125 13.9307 13.5938C13.6328 14.0625 13.186 14.4141 12.5903 14.6484C11.9946 14.8828 11.2573 15 10.3784 15Z" fill="white"/>
<defs>
<linearGradient id="paint0_linear_10856_102459" x1="8.125" y1="1.25" x2="21.875" y2="13.75" gradientUnits="userSpaceOnUse">
<stop stop-color="#5465FF"/>
<stop offset="0.504669" stop-color="#80A6FD"/>
<stop offset="1" stop-color="#492FFF"/>
</linearGradient>
</defs>
</svg>
