<svg width="16" height="16" viewBox="0 0 16 16" fill="none" xmlns="http://www.w3.org/2000/svg">
<path d="M0.941399 0.937622C0.974338 0.410587 1.41139 0 1.93945 0H14.0605C14.5886 0 15.0257 0.410587 15.0586 0.937622L15.8672 13.8752C15.9392 15.0266 15.0247 16 13.8711 16H2.1289C0.97526 16 0.060835 15.0266 0.132797 13.8752L0.941399 0.937622Z" fill="#C7C7C7"/>
<path fill-rule="evenodd" clip-rule="evenodd" d="M5.25495 2.82373C4.95174 2.82373 4.70593 3.06953 4.70593 3.37275V4.70608C4.70593 6.26548 6.18076 7.52961 8.00005 7.52961C9.81934 7.52961 11.2942 6.26548 11.2942 4.70608V3.37275C11.2942 3.06953 11.0484 2.82373 10.7451 2.82373C10.4419 2.82373 10.1961 3.06953 10.1961 3.37275V4.70608C10.1961 5.74568 9.21291 6.58844 8.00005 6.58844C6.78719 6.58844 5.80397 5.74568 5.80397 4.70608V3.37275C5.80397 3.06953 5.55817 2.82373 5.25495 2.82373Z" fill="white"/>
</svg>
