<svg width="16" height="16" viewBox="0 0 16 16" fill="none" xmlns="http://www.w3.org/2000/svg">
<g clip-path="url(#clip0_2563_8139)">
<path d="M3.9375 4.7998H0.5625C0.25184 4.7998 0 5.01916 0 5.28974V15.5099C0 15.7805 0.25184 15.9998 0.5625 15.9998H3.9375C4.24816 15.9998 4.5 15.7805 4.5 15.5099V5.28974C4.5 5.01916 4.24816 4.7998 3.9375 4.7998Z" fill="#C7C7C7"/>
<path d="M9.77484 0H6.02516C5.73512 0 5.5 0.223858 5.5 0.5V15.5C5.5 15.7761 5.73512 16 6.02516 16H9.77484C10.0649 16 10.3 15.7761 10.3 15.5V0.5C10.3 0.223858 10.0649 0 9.77484 0Z" fill="#C7C7C7"/>
<path d="M15.2375 9.13965H11.8625C11.5519 9.13965 11.3 9.36351 11.3 9.63965V15.4996C11.3 15.7758 11.5519 15.9996 11.8625 15.9996H15.2375C15.5482 15.9996 15.8 15.7758 15.8 15.4996V9.63965C15.8 9.36351 15.5482 9.13965 15.2375 9.13965Z" fill="#C7C7C7"/>
</g>
<defs>
<clipPath id="clip0_2563_8139">
<rect width="16" height="16" fill="white"/>
</clipPath>
</defs>
</svg>
