<svg width="18" height="18" viewBox="0 0 18 18" fill="none" xmlns="http://www.w3.org/2000/svg">
<path d="M7.66761 0.322463L1.28268 3.80507C0.924228 3.99854 0.700195 4.364 0.700195 4.76171V12.7051C0.700195 13.092 0.913026 13.4575 1.27148 13.6509L7.65641 17.198C8.45172 17.6387 9.43747 17.6387 10.244 17.198L16.6289 13.6509C16.9874 13.4575 17.2002 13.092 17.2002 12.7051V4.76171C17.2002 4.364 16.9762 3.99854 16.6177 3.80507L10.2216 0.322463C9.42626 -0.107488 8.46292 -0.107488 7.67881 0.322463H7.66761Z" fill="black"/>
<path d="M10.6477 9.45099L12.3067 7.14807H9.27722L6.95904 5.5V8.50952L5.30005 10.8124H8.32951L10.6477 12.4605V9.45099Z" fill="white"/>
</svg>
