<svg width="16" height="18" viewBox="0 0 16 18" fill="none" xmlns="http://www.w3.org/2000/svg">
<g clip-path="url(#clip0_2563_8133)">
<path d="M7.27369 0.965151L0.38171 6.62895C0.13784 6.8275 0 7.12009 0 7.43359V15.8248C0 16.713 0.73161 17.4445 1.64347 17.4445H4.80318C5.10007 17.4445 5.33333 17.2146 5.33333 16.922V12.7107C5.33333 12.4181 5.5666 12.1883 5.86349 12.1883H10.1365C10.4334 12.1883 10.6667 12.4181 10.6667 12.7107V16.922C10.6667 17.2146 10.8999 17.4445 11.1968 17.4445H14.1975C15.1942 17.4445 16 16.6503 16 15.668V7.43359C16 7.12009 15.8622 6.8275 15.6183 6.62895L8.7051 0.965151C8.29158 0.630757 7.68721 0.630757 7.27369 0.965151Z" fill="#C7C7C7"/>
</g>
<defs>
<clipPath id="clip0_2563_8133">
<rect width="16" height="16.7302" fill="white" transform="translate(0 0.714355)"/>
</clipPath>
</defs>
</svg>
