<svg width="16" height="16" viewBox="0 0 16 16" fill="none" xmlns="http://www.w3.org/2000/svg">
<path d="M0.941399 0.937622C0.974338 0.410587 1.41139 0 1.93945 0H14.0605C14.5886 0 15.0257 0.410587 15.0586 0.937622L15.8672 13.8752C15.9392 15.0266 15.0247 16 13.8711 16H2.1289C0.97526 16 0.060835 15.0266 0.132797 13.8752L0.941399 0.937622Z" fill="black"/>
<path fill-rule="evenodd" clip-rule="evenodd" d="M5.25483 2.82353C4.95161 2.82353 4.70581 3.06934 4.70581 3.37255V4.70589C4.70581 6.26528 6.18064 7.52941 7.99993 7.52941C9.81922 7.52941 11.294 6.26528 11.294 4.70589V3.37255C11.294 3.06934 11.0482 2.82353 10.745 2.82353C10.4418 2.82353 10.196 3.06934 10.196 3.37255V4.70589C10.196 5.74548 9.21279 6.58824 7.99993 6.58824C6.78707 6.58824 5.80385 5.74548 5.80385 4.70589V3.37255C5.80385 3.06934 5.55805 2.82353 5.25483 2.82353Z" fill="white"/>
</svg>
