<svg width="16" height="18" viewBox="0 0 16 18" fill="none" xmlns="http://www.w3.org/2000/svg">
<path d="M7.27369 0.965082L0.38171 6.62888C0.13784 6.82743 0 7.12002 0 7.43352V15.8247C0 16.713 0.73161 17.4444 1.64347 17.4444H4.80318C5.10007 17.4444 5.33333 17.2145 5.33333 16.922V12.7107C5.33333 12.4181 5.5666 12.1882 5.86349 12.1882H10.1365C10.4334 12.1882 10.6667 12.4181 10.6667 12.7107V16.922C10.6667 17.2145 10.8999 17.4444 11.1968 17.4444H14.1975C15.1942 17.4444 16 16.6503 16 15.668V7.43352C16 7.12002 15.8622 6.82743 15.6183 6.62888L8.7051 0.965082C8.29158 0.630688 7.68721 0.630688 7.27369 0.965082Z" fill="black"/>
</svg>
