<svg width="16" height="16" viewBox="0 0 16 16" fill="none" xmlns="http://www.w3.org/2000/svg">
<g clip-path="url(#clip0_2649_28484)">
<path d="M3.9375 4.8H0.5625C0.25184 4.8 0 5.01935 0 5.28994V15.5101C0 15.7806 0.25184 16 0.5625 16H3.9375C4.24816 16 4.5 15.7806 4.5 15.5101V5.28994C4.5 5.01935 4.24816 4.8 3.9375 4.8Z" fill="black"/>
<path d="M9.77484 0H6.02516C5.73512 0 5.5 0.223858 5.5 0.5V15.5C5.5 15.7761 5.73512 16 6.02516 16H9.77484C10.0649 16 10.3 15.7761 10.3 15.5V0.5C10.3 0.223858 10.0649 0 9.77484 0Z" fill="black"/>
<path d="M15.2375 9.13989H11.8625C11.5519 9.13989 11.3 9.36375 11.3 9.63989V15.4999C11.3 15.776 11.5519 15.9999 11.8625 15.9999H15.2375C15.5482 15.9999 15.8 15.776 15.8 15.4999V9.63989C15.8 9.36375 15.5482 9.13989 15.2375 9.13989Z" fill="black"/>
</g>
<defs>
<clipPath id="clip0_2649_28484">
<rect width="16" height="16" fill="white"/>
</clipPath>
</defs>
</svg>
