<svg width="12" height="10" viewBox="0 0 12 10" fill="none" xmlns="http://www.w3.org/2000/svg">
<path d="M2.09448 5.14442H0.727295V3.94651H1.80862L0.888872 0.0283203H2.60407L3.41195 3.94651H4.61756L5.51245 0.0283203H7.11579L8.01067 3.94651H9.2225L10.0242 0.0283203H11.7394L10.8196 3.94651H11.9009V5.14442H10.5338L9.61401 9.06261H7.79938L6.91071 5.14442H5.71753L4.82886 9.06261H3.01423L2.09448 5.14442ZM3.9464 6.55447H4.02097L4.34413 5.14442H3.65432L3.9464 6.55447ZM6.63727 3.94651L6.34519 2.64876H6.28305L5.99097 3.94651H6.63727ZM8.60727 6.56695H8.68184L8.97392 5.14442H8.28411L8.60727 6.56695Z" fill="white"/>
</svg>
