<svg width="18" height="18" viewBox="0 0 18 18" fill="none" xmlns="http://www.w3.org/2000/svg">
<path fill-rule="evenodd" clip-rule="evenodd" d="M6.51301 2.7002C6.64404 2.70013 6.77379 2.72598 6.8948 2.77625C7.01582 2.82652 7.12572 2.90023 7.21818 2.99315L12.2076 7.98661C12.3003 8.07935 12.3738 8.18946 12.424 8.31065C12.4742 8.43184 12.5 8.56173 12.5 8.69291C12.5 8.82409 12.4742 8.95398 12.424 9.07517C12.3738 9.19636 12.3003 9.30647 12.2076 9.39921L7.21818 14.3927C7.12624 14.4886 7.01608 14.5653 6.89416 14.6181C6.77225 14.6709 6.64102 14.6988 6.50818 14.7001C6.37535 14.7015 6.24357 14.6763 6.12059 14.6261C5.99761 14.5758 5.8859 14.5015 5.792 14.4074C5.6981 14.3134 5.62391 14.2015 5.57378 14.0784C5.52365 13.9553 5.49859 13.8234 5.50006 13.6904C5.50154 13.5575 5.52952 13.4262 5.58237 13.3042C5.63522 13.1822 5.71187 13.072 5.80784 12.9801L10.091 8.69236L5.80784 4.40574C5.66808 4.26613 5.57284 4.08817 5.53419 3.89437C5.49554 3.70056 5.51521 3.49964 5.59071 3.31704C5.66621 3.13443 5.79415 2.97834 5.95833 2.86854C6.12251 2.75874 6.31554 2.70015 6.51301 2.7002Z" fill="#C7C7C7"/>
</svg>
