<svg width="22" height="22" viewBox="0 0 22 22" fill="none" xmlns="http://www.w3.org/2000/svg">
<path fill-rule="evenodd" clip-rule="evenodd" d="M11 22C17.0751 22 22 17.0751 22 11C22 4.92487 17.0751 0 11 0C4.92487 0 0 4.92487 0 11C0 17.0751 4.92487 22 11 22ZM9.90185 17.4492C10.1931 17.7405 10.5881 17.9041 10.9999 17.9041C11.4118 17.9041 11.8068 17.7405 12.098 17.4492C12.3893 17.158 12.5529 16.763 12.5529 16.3511C12.5529 15.9393 12.3893 15.5443 12.098 15.2531C11.8068 14.9618 11.4118 14.7982 10.9999 14.7982C10.5881 14.7982 10.1931 14.9618 9.90185 15.2531C9.61062 15.5443 9.44701 15.9393 9.44701 16.3511C9.44701 16.763 9.61062 17.158 9.90185 17.4492ZM10.0849 4.26136C9.84217 4.50406 9.70583 4.83322 9.70583 5.17644V11.647C9.70583 11.9903 9.84217 12.3194 10.0849 12.5621C10.3276 12.8048 10.6567 12.9411 10.9999 12.9411C11.3432 12.9411 11.6723 12.8048 11.915 12.5621C12.1577 12.3194 12.2941 11.9903 12.2941 11.647V5.17644C12.2941 4.83322 12.1577 4.50406 11.915 4.26136C11.6723 4.01867 11.3432 3.88232 10.9999 3.88232C10.6567 3.88232 10.3276 4.01867 10.0849 4.26136Z" fill="white"/>
</svg>
