<svg width="24" height="24" viewBox="0 0 24 24" fill="none" xmlns="http://www.w3.org/2000/svg">
<circle cx="12" cy="12" r="12" fill="#E9ECEF"/>
<path d="M10.1594 14.4062C10.1594 14.5012 10.2364 14.5781 10.3313 14.5781H12.05C12.145 14.5781 12.2219 14.5012 12.2219 14.4062C12.2297 13.3125 12.6204 12.8047 13.5032 12.2812C14.5266 11.6641 15.1907 10.8516 15.1907 9.5625C15.1907 7.63281 13.6516 6.5 11.4719 6.5C9.84837 6.5 8.46679 7.19502 7.98332 8.63102C7.7838 9.22364 8.31294 9.75 8.93825 9.75C9.5409 9.75 9.9903 9.20135 10.4111 8.76992C10.6816 8.49254 11.0621 8.34799 11.4563 8.34375C12.2141 8.35156 12.8235 8.85938 12.8157 9.64062C12.8235 10.3594 12.3 10.8438 11.6282 11.2812C10.6907 11.8672 10.1672 12.4609 10.1594 14.4062ZM9.92505 16.7969C9.90942 17.5234 10.5032 18.1094 11.2375 18.1094C11.9329 18.1094 12.5344 17.5234 12.5344 16.7969C12.5344 16.0781 11.9329 15.4922 11.2375 15.5C10.5032 15.4922 9.90942 16.0781 9.92505 16.7969Z" fill="black"/>
</svg>
