<svg width="20" height="20" viewBox="0 0 20 20" fill="none" xmlns="http://www.w3.org/2000/svg">
<circle cx="10" cy="10.0003" r="9.23077" fill="#F89132"/>
<circle cx="10" cy="10.0003" r="9.48077" stroke="white" stroke-opacity="0.5" stroke-width="0.5"/>
<path d="M7.34241 15.3851V5.96973H10.2916C11.3163 5.96973 12.1932 6.20511 12.9224 6.67588C13.6516 7.13742 14.0163 7.90819 14.0163 8.98819C14.0163 10.059 13.6239 10.8482 12.8393 11.3559C12.0547 11.8543 11.1639 12.1036 10.167 12.1036H9.12856V15.3851H7.34241ZM10.2363 7.46511H9.12856V10.622H10.2639C10.7993 10.622 11.2332 10.502 11.5655 10.262C11.8978 10.0128 12.0824 9.62511 12.1193 9.09896C12.1193 8.48973 11.9532 8.06511 11.6209 7.82511C11.2886 7.58511 10.827 7.46511 10.2363 7.46511Z" fill="white"/>
</svg>
