<svg width="176" height="127" viewBox="0 0 176 127" fill="none" xmlns="http://www.w3.org/2000/svg">
<g clip-path="url(#clip0_3_2903)">
<path d="M108.533 25.7054H87.5733L100.236 47.7126L87.5733 69.7337H108.533L121.209 47.7126L108.533 25.7054Z" fill="black"/>
<path d="M134.221 19.1214L142.182 7.97077H127.645L116.508 0V14.5547L108.547 25.7054H123.084L134.221 33.6762V19.1214Z" fill="#5465FF"/>
<path d="M87.5733 3.6842H67.0616V69.7337H87.5733V3.6842Z" fill="black"/>
<path d="M16.8738 112.697C16.8738 115.961 14.5512 119.309 9.73814 119.309H0V96.0695H9.02456C13.0681 96.0695 15.6286 98.493 15.6286 102.037C15.6286 103.858 14.957 106.043 12.5924 106.898C15.4187 107.472 16.8738 110.134 16.8738 112.697ZM8.85667 99.7537H4.11352V105.455H8.85667C10.5776 105.455 11.5151 104.306 11.5151 102.625C11.5151 100.944 10.6336 99.7537 8.85667 99.7537ZM9.09452 115.639C11.4871 115.639 12.7323 114.056 12.7323 112.305C12.7323 110.652 11.655 108.929 9.19246 108.929H4.11352V115.639H9.09452Z" fill="#10161A"/>
<path d="M19.0705 97.9886C19.0705 96.6018 20.2458 95.5932 21.631 95.5932C23.0161 95.5932 24.1635 96.6018 24.1635 97.9886C24.1635 99.3755 23.0581 100.384 21.631 100.384C20.2038 100.384 19.0705 99.3334 19.0705 97.9886ZM19.6722 119.295V103.55H23.5758V119.295H19.6722Z" fill="#10161A"/>
<path d="M38.3649 103.69L37.5954 107.402C36.6859 106.926 35.8744 106.828 35.3007 106.828C32.7403 106.828 31.3271 109.391 31.3271 113.804V119.295H27.3815V103.55H31.2852V106.926C32.1246 104.292 33.8456 103.144 35.8044 103.144C36.7419 103.144 37.7632 103.34 38.3649 103.676V103.69Z" fill="#10161A"/>
<path d="M51.6429 94.9908H55.5465V119.309H51.6429V117.222C50.5655 118.875 48.3409 119.716 46.424 119.716C42.2825 119.716 38.6727 116.438 38.6727 111.423C38.6727 106.408 42.2406 103.158 46.3821 103.158C48.3689 103.158 50.5655 103.97 51.6429 105.623V95.0049V94.9908ZM51.5729 111.381C51.5729 108.621 49.2783 106.8 47.0257 106.8C44.6051 106.8 42.6183 108.761 42.6183 111.381C42.6183 114 44.6051 116.073 47.0257 116.073C49.4462 116.073 51.5729 114.154 51.5729 111.381Z" fill="#10161A"/>
<path d="M58.7506 97.9886C58.7506 96.6018 59.9259 95.5932 61.3111 95.5932C62.6962 95.5932 63.8435 96.6018 63.8435 97.9886C63.8435 99.3755 62.7382 100.384 61.3111 100.384C59.8839 100.384 58.7506 99.3334 58.7506 97.9886ZM59.3522 119.295V103.55H63.2559V119.295H59.3522Z" fill="#10161A"/>
<path d="M82.3264 112.795H70.1257C70.5595 114.981 72.2525 116.172 74.6031 116.172C76.282 116.172 77.933 115.429 78.8425 114.154L81.4729 116.143C80.0178 118.441 77.2335 119.716 74.3652 119.716C69.678 119.716 66.1102 116.34 66.1102 111.423C66.1102 106.506 69.8459 103.158 74.3652 103.158C78.8845 103.158 82.3824 106.366 82.3824 111.283C82.3824 111.717 82.3544 112.235 82.3124 112.795H82.3264ZM78.5207 110.064C78.2828 107.907 76.6038 106.618 74.4072 106.618C72.2105 106.618 70.6015 107.668 70.1257 110.064H78.5067H78.5207Z" fill="#10161A"/>
<path d="M84.579 112.585H88.6506C88.6786 114.406 90.3995 116.059 92.96 116.059C95.3246 116.059 96.8357 114.603 96.8357 112.781C96.8357 111.157 95.4505 110.218 93.5057 109.686L90.6094 108.873C85.6284 107.598 84.7469 104.587 84.7469 102.569C84.7469 98.4509 88.3568 95.6492 92.6242 95.6492C96.8916 95.6492 100.208 98.2828 100.208 102.625H96.1361C96.1361 100.706 94.681 99.3194 92.5262 99.3194C90.5394 99.3194 88.8884 100.664 88.8884 102.485C88.8884 103.13 89.0843 104.475 91.7567 105.189L94.5131 106.001C98.1509 107.01 100.949 108.901 100.949 112.613C100.949 116.858 97.4093 119.702 92.8621 119.702C87.909 119.702 84.579 116.536 84.579 112.585Z" fill="#10161A"/>
<path d="M115.598 103.55H119.502V126.986H115.598V117.208C114.521 118.889 112.324 119.702 110.338 119.702C106.196 119.702 102.628 116.466 102.628 111.437C102.628 106.408 106.238 103.144 110.38 103.144C112.296 103.144 114.521 103.956 115.598 105.609V103.55ZM115.528 111.437C115.528 108.677 113.374 106.786 110.981 106.786C108.589 106.786 106.574 108.845 106.574 111.437C106.574 114.028 108.561 116.059 110.981 116.059C113.234 116.059 115.528 114.238 115.528 111.437Z" fill="#10161A"/>
<path d="M133.955 103.55H137.859V119.295H133.955V116.83C133.144 118.819 130.653 119.702 129.072 119.702C125.029 119.702 122.776 116.97 122.776 112.389V103.55H126.68V112.221C126.68 114.743 128.191 116.059 129.954 116.059C131.717 116.059 133.955 115.051 133.955 111.983V103.55Z" fill="#10161A"/>
<path d="M153.026 103.55H156.929V119.295H153.026V116.83C151.976 118.553 149.892 119.702 147.639 119.702C143.428 119.702 140.056 116.298 140.056 111.409C140.056 106.52 143.288 103.144 147.737 103.144C149.892 103.144 151.976 104.082 153.026 105.735V103.55ZM152.956 111.409C152.956 108.705 150.731 106.786 148.409 106.786C145.876 106.786 143.959 108.873 143.959 111.409C143.959 113.944 145.876 116.059 148.437 116.059C150.857 116.059 152.956 114.042 152.956 111.409Z" fill="#10161A"/>
<path d="M172.082 94.9908H175.986V119.309H172.082V117.222C171.005 118.875 168.78 119.716 166.863 119.716C162.722 119.716 159.112 116.438 159.112 111.423C159.112 106.408 162.68 103.158 166.822 103.158C168.808 103.158 171.005 103.97 172.082 105.623V95.0049V94.9908ZM172.012 111.381C172.012 108.621 169.718 106.8 167.465 106.8C165.045 106.8 163.058 108.761 163.058 111.381C163.058 114 165.045 116.073 167.465 116.073C169.886 116.073 172.012 114.154 172.012 111.381Z" fill="#10161A"/>
</g>
<defs>
<clipPath id="clip0_3_2903">
<rect width="176" height="127" fill="white"/>
</clipPath>
</defs>
</svg>
